HIERARCHY
ROOT Hips
{
	OFFSET 55.310501 45.591206 43.872097
	CHANNELS 6 Xposition Yposition Zposition Zrotation Xrotation Yrotation
	JOINT Chest
	{
		OFFSET -0.153500 1.163101 7.852402
		CHANNELS 6 Xposition Yposition Zposition Zrotation Xrotation Yrotation
		JOINT Chest2
		{
			OFFSET 0.000000 0.000000 3.343300
			CHANNELS 6 Xposition Yposition Zposition Zrotation Xrotation Yrotation
			JOINT Neck
			{
				OFFSET 0.000000 0.000000 7.785500
				CHANNELS 6 Xposition Yposition Zposition Zrotation Xrotation Yrotation
				JOINT Head
				{
					OFFSET 0.000000 0.000000 2.173901
					CHANNELS 6 Xposition Yposition Zposition Zrotation Xrotation Yrotation
					End Site
					{
						OFFSET 0.000000 0.000000 10.528198
					}
				}
			}
			JOINT LeftCollar
			{
				OFFSET 2.676300 -1.652401 4.938301
				CHANNELS 6 Xposition Yposition Zposition Zrotation Xrotation Yrotation
				JOINT LeftShoulder
				{
					OFFSET 4.299000 0.000000 0.000000
					CHANNELS 6 Xposition Yposition Zposition Zrotation Xrotation Yrotation
					JOINT LeftElbow
					{
						OFFSET 0.000000 0.000000 -10.245102
						CHANNELS 6 Xposition Yposition Zposition Zrotation Xrotation Yrotation
						JOINT LeftWrist
						{
							OFFSET 0.000000 0.000000 -12.703300
							CHANNELS 6 Xposition Yposition Zposition Zrotation Xrotation Yrotation
							End Site
							{
								OFFSET 0.000000 0.000000 -2.173901
							}
						}
					}
				}
			}
			JOINT RightCollar
			{
				OFFSET -2.534599 -1.686401 5.195000
				CHANNELS 6 Xposition Yposition Zposition Zrotation Xrotation Yrotation
				JOINT RightShoulder
				{
					OFFSET -4.144100 0.000000 0.000000
					CHANNELS 6 Xposition Yposition Zposition Zrotation Xrotation Yrotation
					JOINT RightElbow
					{
						OFFSET 0.000000 0.000000 -10.116501
						CHANNELS 6 Xposition Yposition Zposition Zrotation Xrotation Yrotation
						JOINT RightWrist
						{
							OFFSET 0.000000 0.000000 -12.937801
							CHANNELS 6 Xposition Yposition Zposition Zrotation Xrotation Yrotation
							End Site
							{
								OFFSET 0.000000 0.000000 -2.173901
							}
						}
					}
				}
			}
		}
	}
	JOINT LeftHip
	{
		OFFSET 2.175598 0.064499 -2.662899
		CHANNELS 6 Xposition Yposition Zposition Zrotation Xrotation Yrotation
		JOINT LeftKnee
		{
			OFFSET 0.000000 -0.000004 -18.585800
			CHANNELS 6 Xposition Yposition Zposition Zrotation Xrotation Yrotation
			JOINT LeftAnkle
			{
				OFFSET 0.000000 0.000000 -18.979500
				CHANNELS 6 Xposition Yposition Zposition Zrotation Xrotation Yrotation
				End Site
				{
					OFFSET 0.000000 -9.264000 0.000000
				}
			}
		}
	}
	JOINT RightHip
	{
		OFFSET -2.092400 -0.058102 -2.581200
		CHANNELS 6 Xposition Yposition Zposition Zrotation Xrotation Yrotation
		JOINT RightKnee
		{
			OFFSET 0.000000 -0.000004 -18.665001
			CHANNELS 6 Xposition Yposition Zposition Zrotation Xrotation Yrotation
			JOINT RightAnkle
			{
				OFFSET 0.000000 0.000000 -18.566601
				CHANNELS 6 Xposition Yposition Zposition Zrotation Xrotation Yrotation
				End Site
				{
					OFFSET 0.000000 -8.497601 0.000000
				}
			}
		}
	}
}
MOTION
Frames: 5
Frame Time: 0.041667
67.151199 50.570301 39.320290 372.055813 -4.540707 -17.336258 -0.153503 1.163104 7.852409 19.109428 15.186794 0.952633 -0.000001 0.000001 3.343296 -6.259179 -3.097546 -0.169004 0.000000 -0.000002 7.785503 -47.403248 2.373375 23.751648 -0.000001 0.000006 2.173907 -2.175661 4.440764 -5.674184 2.676293 -1.652395 4.938307 -3.756566 3.700296 5.268753 4.298996 0.000004 -0.000001 -43.150673 9.089632 -58.494983 -0.000009 0.000009 -10.245108 138.336124 252.353223 166.735122 -0.000004 0.000010 -12.703304 -38.487286 1.633764 10.376331 -2.534594 -1.686405 5.195000 17.210613 7.185554 -0.807351 -4.144104 -0.000010 -0.000002 50.480569 -26.248125 56.465283 0.000006 0.000017 -10.116494 -71.871581 -22.056117 -81.527064 0.000000 0.000005 -12.937807 131.545222 189.954323 87.901277 2.175596 0.064495 -2.662897 -337.439841 -13.098877 21.293301 -0.000002 -0.000015 -18.585800 134.362662 -235.930962 -141.385503 -0.000005 0.000003 -18.979502 370.538609 -7.558806 -8.079344 -2.092408 -0.058101 -2.581195 -174.391463 -10.403763 -67.045540 -0.000001 -0.000011 -18.665007 -349.476683 4.657090 17.929947 -0.000000 -0.000004 -18.566608 520.507243 62.739345 -61.882784
67.162903 50.580700 39.306393 372.030869 -4.526252 -17.315076 -0.153494 1.163097 7.852405 19.296317 15.133384 0.866563 0.000002 0.000013 3.343308 -6.323759 -3.125784 -0.170119 -0.000007 0.000002 7.785497 -47.543366 2.378283 23.869459 -0.000008 -0.000003 2.173910 -2.105073 4.456807 -5.729341 2.676290 -1.652396 4.938296 -3.836005 3.768344 5.412249 4.298994 0.000008 -0.000002 -43.122720 9.335321 -58.704486 -0.000002 0.000010 -10.245110 138.385192 252.544933 166.656752 -0.000003 -0.000003 -12.703302 -38.442975 1.611281 10.380568 -2.534597 -1.686401 5.195002 16.334143 6.909889 -1.122733 -4.144104 0.000003 -0.000008 51.245834 -25.542484 56.343689 0.000003 0.000015 -10.116490 -71.872366 -21.954137 -81.488999 -0.000004 -0.000008 -12.937798 131.855053 189.925745 87.884549 2.175600 0.064489 -2.662896 -337.384243 -13.155871 21.326156 -0.000001 -0.000012 -18.585808 134.119767 -235.959868 -141.162224 -0.000002 -0.000009 -18.979498 370.622511 -7.623791 -8.010731 -2.092388 -0.058102 -2.581192 -174.206365 -10.610453 -67.020774 0.000005 -0.000012 -18.665007 -349.461083 4.689887 17.948723 0.000002 0.000004 -18.566607 519.976072 62.801520 -61.615594
67.174011 50.593403 39.293999 371.988303 -4.473213 -17.346223 -0.153510 1.163106 7.852405 19.387880 15.079301 0.836072 -0.000005 0.000002 3.343302 -6.301619 -3.176352 -0.168059 0.000004 0.000002 7.785499 -47.624546 2.358579 23.981563 -0.000004 0.000002 2.173910 -2.083372 4.465934 -5.826862 2.676297 -1.652396 4.938300 -3.893946 3.803054 5.702409 4.299007 0.000002 -0.000007 -43.043084 9.655978 -58.996176 -0.000004 0.000000 -10.245104 138.428305 252.763991 166.608845 0.000002 -0.000002 -12.703288 -38.404132 1.601817 10.354801 -2.534591 -1.686392 5.194998 16.379579 7.001500 -1.326621 -4.144100 -0.000012 -0.000008 51.401507 -24.844996 56.426033 0.000005 0.000017 -10.116500 -72.151789 -22.073643 -81.339698 0.000003 -0.000002 -12.937807 131.802734 189.989362 87.718767 2.175588 0.064492 -2.662901 -337.177015 -13.171086 21.426075 0.000000 -0.000007 -18.585804 133.863266 -236.018498 -141.011496 0.000000 -0.000009 -18.979496 370.644614 -7.674585 -7.999258 -2.092411 -0.058098 -2.581188 -173.996146 -10.805556 -67.031716 0.000001 -0.000011 -18.665007 -349.539958 4.683412 17.941105 0.000000 0.000004 -18.566608 519.529487 62.824763 -61.394597
67.184410 50.608604 39.282997 371.947514 -4.384199 -17.395561 -0.153487 1.163103 7.852400 19.455970 14.981304 0.801615 0.000011 0.000006 3.343305 -6.254565 -3.248121 -0.164464 -0.000002 0.000006 7.785497 -47.679095 2.310295 24.143822 0.000002 -0.000000 2.173913 -2.126491 4.452331 -5.937418 2.676301 -1.652401 4.938301 -3.958600 3.873416 6.138501 4.299006 0.000002 -0.000007 -42.923265 10.050065 -59.385373 0.000001 0.000009 -10.245110 138.432252 253.013648 166.512772 -0.000001 0.000012 -12.703294 -38.350614 1.611146 10.308598 -2.534601 -1.686395 5.194997 16.471913 7.219681 -1.516977 -4.144104 -0.000006 0.000000 51.399902 -24.520832 56.615353 0.000002 0.000007 -10.116495 -72.010760 -22.292797 -81.293636 -0.000001 0.000007 -12.937796 131.455665 190.242010 87.833221 2.175609 0.064491 -2.662896 -336.941565 -13.242809 21.565795 0.000002 -0.000006 -18.585800 133.609565 -236.115296 -140.855125 0.000006 -0.000004 -18.979496 370.651690 -7.716565 -7.988202 -2.092384 -0.058109 -2.581197 -173.840609 -10.884363 -67.077765 0.000007 -0.000003 -18.665005 -349.747432 4.615929 17.909623 0.000002 0.000001 -18.566605 519.365016 62.779131 -61.339026
67.195305 50.625504 39.272392 371.880824 -4.265014 -17.446962 -0.153495 1.163101 7.852409 19.553310 14.835820 0.739943 -0.000004 0.000001 3.343312 -6.215861 -3.304959 -0.161419 -0.000009 -0.000002 7.785501 -47.710487 2.231417 24.346904 -0.000007 0.000006 2.173903 -2.196383 4.470531 -6.108397 2.676285 -1.652406 4.938300 -4.127031 3.999112 6.514253 4.298994 -0.000004 -0.000004 -42.665887 10.226805 -59.732279 0.000004 0.000001 -10.245108 138.517288 253.239864 166.597029 0.000004 0.000015 -12.703299 -38.342889 1.634792 10.250506 -2.534610 -1.686409 5.195000 16.561920 7.480192 -1.546377 -4.144096 0.000010 -0.000002 51.453133 -24.256693 56.762349 0.000002 0.000010 -10.116495 -71.801011 -22.613957 -81.197275 0.000001 -0.000002 -12.937799 130.804598 190.670564 87.961102 2.175597 0.064491 -2.662896 -336.707234 -13.336696 21.707086 -0.000000 -0.000010 -18.585804 133.403935 -236.200946 -140.724805 0.000003 0.000005 -18.979500 370.658220 -7.760494 -7.943052 -2.092397 -0.058103 -2.581188 -173.752732 -10.807208 -67.145752 -0.000003 -0.000005 -18.664995 -350.036048 4.506538 17.856297 0.000005 -0.000002 -18.566612 519.559704 62.670660 -61.471525
